<svg width="48" height="48" viewBox="0 0 48 48" fill="none" xmlns="http://www.w3.org/2000/svg">
  <!-- Background circle -->
  <circle cx="24" cy="24" r="22" fill="#3B9EFF" stroke="#2563EB" stroke-width="2"/>

  <!-- School building -->
  <rect x="12" y="26" width="24" height="14" fill="white" rx="1"/>

  <!-- Roof -->
  <path d="M10 26 L24 18 L38 26 L36 26 L24 20 L12 26 Z" fill="white"/>

  <!-- Door -->
  <rect x="22" y="32" width="4" height="8" fill="#3B9EFF"/>

  <!-- Windows -->
  <rect x="15" y="29" width="3" height="3" fill="#3B9EFF" rx="0.5"/>
  <rect x="30" y="29" width="3" height="3" fill="#3B9EFF" rx="0.5"/>
  <rect x="15" y="34" width="3" height="3" fill="#3B9EFF" rx="0.5"/>
  <rect x="30" y="34" width="3" height="3" fill="#3B9EFF" rx="0.5"/>

  <!-- Flag pole -->
  <line x1="24" y1="18" x2="24" y2="12" stroke="white" stroke-width="1"/>

  <!-- Flag -->
  <path d="M24 12 L30 12 L28 14 L30 16 L24 16 Z" fill="#3B9EFF"/>
</svg>